<?xml version="1.0" encoding="iso-8859-1"?>
<!-- Generator: Adobe Illustrator 15.1.0, SVG Export Plug-In . SVG Version: 6.00 Build 0)  -->
<!DOCTYPE svg PUBLIC "-//W3C//DTD SVG 1.1//EN" "http://www.w3.org/Graphics/SVG/1.1/DTD/svg11.dtd">
<svg version="1.1" id="Layer_1" xmlns="http://www.w3.org/2000/svg" xmlns:xlink="http://www.w3.org/1999/xlink" x="0px" y="0px"
	 width="16px" height="16px" viewBox="0 0 16 16" style="enable-background:new 0 0 16 16;" xml:space="preserve">
<path d="M15.439,12.631L10.756,7.96l4.651-4.651c0.755-0.755,0.755-2.002,0-2.757C14.652-0.17,13.405-0.17,12.65,0.585L8.006,5.217
	L3.361,0.585c-0.754-0.755-2.001-0.755-2.756,0c-0.755,0.754-0.788,2.002,0,2.757l4.634,4.634l-4.667,4.655
	c-0.754,0.755-0.754,2.002,0,2.756c0.755,0.755,2.002,0.788,2.757,0l4.661-4.66l4.694,4.694c0.754,0.754,2.001,0.754,2.756,0
	C16.162,14.665,16.195,13.418,15.439,12.631z"/>
</svg>
