<svg version="1.1" xmlns="http://www.w3.org/2000/svg" xmlns:xlink="http://www.w3.org/1999/xlink" x="0px" y="0px"
	 width="16px" height="16px" viewBox="0 0 16 16" enable-background="new 0 0 16 16" xml:space="preserve">
<path d="M16,8.156C16,9.175,15.175,10,14.156,10H1.844C0.826,10,0,9.175,0,8.156V7.844C0,6.826,0.826,6,1.844,6h12.313
	C15.175,6,16,6.826,16,7.844V8.156z"/>
<path d="M16,1.5C16,2.329,15.328,3,14.5,3h-13C0.671,3,0,2.329,0,1.5l0,0C0,0.671,0.671,0,1.5,0h13C15.328,0,16,0.671,16,1.5L16,1.5
	z"/>
<path d="M16,14.5c0-0.828-0.672-1.5-1.5-1.5h-13C0.671,13,0,13.672,0,14.5l0,0C0,15.328,0.671,16,1.5,16h13
	C15.328,16,16,15.328,16,14.5L16,14.5z"/>
</svg>
