<svg version="1.1" xmlns="http://www.w3.org/2000/svg" xmlns:xlink="http://www.w3.org/1999/xlink"
           viewBox="0 0 64 64" xml:space="preserve">
    <path class = "main_nav_icon-top" d="M57.9,0h-52C2.7,0,0,2.7,0,6c0,3.3,2.7,6,5.9,6h52c3.3,0,5.9-2.7,5.9-6C63.9,2.7,61.2,0,57.9,0z"/>
    <path class = "main_nav_icon-bottom" d="M57.9,52h-52C2.7,52,0,54.7,0,58c0,3.3,2.7,6,5.9,6h52c3.3,0,5.9-2.7,5.9-6C63.9,54.7,61.2,52,57.9,52z"/>
    <path class = "main_nav_icon-middle" d="M57.9,26h-52C2.7,26,0,28.7,0,32c0,3.3,2.7,6,5.9,6h52c3.3,0,5.9-2.7,5.9-6C63.9,28.7,61.2,26,57.9,26z"/>
</svg>
