<svg version="1.1" xmlns="http://www.w3.org/2000/svg" xmlns:xlink="http://www.w3.org/1999/xlink" viewBox="0 0 16 16" xml:space="preserve">
	<defs>
		<style>
				.icons { display: none; }
				.icons:target { display: inline; }
				.white { fill: #FFFFFF; }
				.black { fill: #000000; }
		</style>
	</defs>
	<g class = "icons white" id="blog">
		<rect width="7" height="7"/>
		<rect x="9" width="7" height="7"/>
		<rect y="9" width="7" height="7"/>
		<rect x="9" y="9" width="7" height="7"/>
	</g>
	<g class = "icons white" id="scrapbook">
		<rect width="7" height="7"/>
		<rect x="9" width="7" height="7"/>
		<rect y="9" width="7" height="7"/>
		<rect x="9" y="9" width="7" height="7"/>
	</g>
	<g class = "icons white" id="projects">
		<rect width="7" height="7"/>
		<rect x="9" width="7" height="7"/>
		<rect y="9" width="7" height="7"/>
		<rect x="9" y="9" width="7" height="7"/>
	</g>
	<g class = "icons black" id="instagram">
		<path d="M16 13.9c0 1.1-0.9 2.1-2.1 2.1H2.1C0.9 16 0 15.1 0 13.9V2.1C0 0.9 0.9 0 2.1 0h11.9C15.1 0 16 0.9 16 2.1V13.9zM14.2 6.8h-1.4C12.9 7.2 13 7.7 13 8.1c0 2.7-2.2 4.8-5 4.8 -2.7 0-5-2.2-5-4.8 0-0.5 0.1-0.9 0.2-1.4H1.8v6.8c0 0.4 0.3 0.6 0.6 0.6h11.1c0.4 0 0.6-0.3 0.6-0.6V6.8zM8 4.9C6.2 4.9 4.8 6.3 4.8 8c0 1.7 1.4 3.1 3.2 3.1 1.8 0 3.2-1.4 3.2-3.1C11.2 6.3 9.8 4.9 8 4.9zM14.2 2.5c0-0.4-0.3-0.7-0.7-0.7h-1.8c-0.4 0-0.7 0.3-0.7 0.7v1.7c0 0.4 0.3 0.7 0.7 0.7h1.8c0.4 0 0.7-0.3 0.7-0.7V2.5z"/>
	</g>
	<g class = "icons black" id="github">
		<path d="M10.5 15.8c-0.4 0.1-0.5-0.2-0.5-0.4 0-0.3 0-1.1 0-2.2 0-0.7-0.2-1.2-0.5-1.5 1.8-0.2 3.7-0.9 3.7-3.9 0-0.9-0.3-1.6-0.8-2.1 0.1-0.2 0.4-1-0.1-2.1C11.5 3.3 10 4.3 10 4.3 9.4 4.2 8.7 4.1 8 4.1S6.6 4.2 6 4.3c0 0-1.5-1-2.2-0.8C3.4 4.6 3.6 5.4 3.7 5.6 3.2 6.2 2.9 6.9 2.9 7.8c0 3.1 1.9 3.7 3.6 3.9 -0.2 0.2-0.4 0.6-0.5 1.1 -0.5 0.2-1.6 0.6-2.3-0.7 -0.4-0.8-1.2-0.8-1.2-0.8 -0.8 0-0.1 0.5-0.1 0.5C2.9 12 3.3 13 3.3 13 3.8 14.4 6 13.9 6 13.9c0 0.7 0 1.3 0 1.5 0 0.2-0.1 0.5-0.6 0.4C2.3 14.7 0 11.7 0 8.2c0-4.4 3.6-8 8-8s8 3.6 8 8C16 11.7 13.7 14.7 10.5 15.8z"/>
	</g>
	<g class = "icons black" id="email">
		<path d="M14.5 5.7c-1.4 1-2.8 1.9-4.2 2.9C9.8 8.9 8.8 9.8 8.1 9.8h0 0c-0.7 0-1.7-0.8-2.3-1.2C4.4 7.6 3 6.6 1.6 5.7 1 5.2 0.1 4.2 0.1 3.4c0-0.9 0.5-1.6 1.4-1.6h13.1c0.8 0 1.4 0.6 1.4 1.4C16 4.2 15.3 5.1 14.5 5.7zM16 12.9c0 0.8-0.6 1.4-1.4 1.4H1.5c-0.8 0-1.4-0.6-1.4-1.4v-7C0.4 6.1 0.7 6.4 1 6.6c1.5 1 3 2 4.4 3.1 0.7 0.5 1.7 1.2 2.6 1.2h0 0c1 0 1.9-0.7 2.6-1.2 1.4-1 2.9-2.1 4.4-3.1 0.3-0.2 0.6-0.5 0.9-0.8V12.9z"/>
	</g>
	<g class = "icons black" id="twitter">
		<path d="M14.4 4.7c0 0.1 0 0.3 0 0.4 0 4.3-3.3 9.3-9.3 9.3 -1.9 0-3.6-0.5-5-1.5 0.3 0 0.5 0 0.8 0 1.5 0 2.9-0.5 4.1-1.4 -1.4 0-2.6-1-3.1-2.3 0.2 0 0.4 0.1 0.6 0.1 0.3 0 0.6 0 0.9-0.1C1.8 9 0.6 7.7 0.6 6.1c0 0 0 0 0 0 0.4 0.2 0.9 0.4 1.5 0.4C1.2 5.9 0.7 4.9 0.7 3.8c0-0.6 0.2-1.2 0.4-1.7 1.6 2 4 3.3 6.8 3.4C7.8 5.3 7.8 5 7.8 4.8c0-1.8 1.5-3.3 3.3-3.3 0.9 0 1.8 0.4 2.4 1 0.7-0.1 1.5-0.4 2.1-0.8 -0.2 0.8-0.8 1.4-1.4 1.8C14.8 3.5 15.4 3.3 16 3 15.6 3.7 15 4.3 14.4 4.7z"/>
	</g>
</svg>

