<svg xmlns="http://www.w3.org/2000/svg">
	<symbol id = "icon-close" viewBox="0 0 64 64">
		<path d="M54.6,46.1L17.8,9.4c-2.3-2.3-6.1-2.3-8.4,0c-2.3,2.3-2.4,6.1,0,8.4l36.8,36.8c2.3,2.3,6.1,2.3,8.4,0
              C56.8,52.3,56.9,48.5,54.6,46.1z"/>
        <path d="M46.1,9.4L9.3,46.1c-2.3,2.3-2.3,6.1,0,8.4c2.3,2.3,6.1,2.4,8.4,0l36.8-36.8c2.3-2.3,2.3-6.1,0-8.4
              C52.2,7.1,48.4,7.1,46.1,9.4z"/>
	</symbol>
	<symbol id = "scrapbook-icon" viewBox="0 0 16 16">
		<style>.a{fill:#FFF;}</style>
		<rect width="7" height="7" class="a"/>
		<rect x="9" width="7" height="7" class="a"/>
		<rect y="9" width="7" height="7" class="a"/>
		<rect x="9" y="9" width="7" height="7" class="a"/>
	</symbol>
	<symbol id = "about-icon" viewBox="0 0 16 16">
		<style>.b{fill:#FFFF00;}</style>
		<rect width="7" height="7" class="b"/>
		<rect x="9" width="7" height="7" class="b"/>
		<rect y="9" width="7" height="7" class="b"/>
		<rect x="9" y="9" width="7" height="7" class="b"/>
	</symbol>
	<symbol id = "blog-icon" viewBox="0 0 16 16">
		<style>.c{fill:#FF0000;}</style>
		<rect width="7" height="7" class="c"/>
		<rect x="9" width="7" height="7" class="c"/>
		<rect y="9" width="7" height="7" class="c"/>
		<rect x="9" y="9" width="7" height="7" class="c"/>
	</symbol>
</svg>