<svg version="1.1" aria-labelledby="title" xmlns="http://www.w3.org/2000/svg" xmlns:xlink="http://www.w3.org/1999/xlink" viewBox="0 0 40 45.902" xml:space="preserve">
	<title id = "title">Main Logo</title>
	<path d="M19.995,2.558c0.895,0,2.527-1.023,3.319-1.019c2.02,0.012,3.717,3.848,5.761,3.848
		C31.687,5.388,31.005,0,32.736,0c2.432,0.004,7.671,13.854,7.237,21.311C39.416,43.432,8.179,49.292,8.179,44.175
		c0-1.231,2.856-2.056,2.856-4.013c0-3.599-11.021-5.5-11.021-19.149C-0.292,12.021,4.735,0.004,7.231,0.004
		c1.789,0,0.978,5.384,3.664,5.384c1.731,0,3.649-3.848,5.759-3.848C18.186,1.551,18.892,2.558,19.995,2.558"/>
</svg>
