<?xml version="1.0" encoding="iso-8859-1"?>
<!-- Generator: Adobe Illustrator 19.1.0, SVG Export Plug-In . SVG Version: 6.00 Build 0)  -->
<svg version="1.1" id="Layer_1" xmlns="http://www.w3.org/2000/svg" xmlns:xlink="http://www.w3.org/1999/xlink" x="0px" y="0px"
	 viewBox="0 0 16 16" style="enable-background:new 0 0 16 16;" xml:space="preserve">
<g>
	<path d="M14.768,16c-0.327,0-0.643-0.135-0.865-0.364l-3.298-3.289c-1.124,0.778-2.47,1.192-3.835,1.192
		C3.029,13.538,0,10.511,0,6.769C0,3.029,3.029,0,6.769,0c3.74,0,6.768,3.029,6.768,6.769c0,1.365-0.412,2.712-1.192,3.837
		l3.298,3.298c0.22,0.221,0.355,0.538,0.355,0.865C15.999,15.452,15.452,16,14.768,16z M6.769,2.462
		c-2.375,0-4.308,1.932-4.308,4.308c0,2.376,1.932,4.308,4.308,4.308s4.306-1.932,4.306-4.308C11.076,4.394,9.145,2.462,6.769,2.462
		z M9.845,7.077c0,0.163-0.143,0.308-0.307,0.308H7.385v2.155c0,0.163-0.144,0.307-0.308,0.307H6.462
		c-0.163,0-0.308-0.144-0.308-0.307V7.385H4c-0.163,0-0.308-0.144-0.308-0.308V6.462c0-0.163,0.144-0.308,0.308-0.308h2.154V4
		c0-0.163,0.144-0.308,0.308-0.308h0.615C7.24,3.692,7.385,3.837,7.385,4v2.154h2.153c0.164,0,0.307,0.144,0.307,0.308V7.077z"/>
</g>
<g>
</g>
<g>
</g>
<g>
</g>
<g>
</g>
<g>
</g>
<g>
</g>
<g>
</g>
<g>
</g>
<g>
</g>
<g>
</g>
<g>
</g>
<g>
</g>
<g>
</g>
<g>
</g>
<g>
</g>
</svg>
